<?xml version="1.0" standalone="no"?>
<!DOCTYPE svg PUBLIC "-//W3C//DTD SVG 20010904//EN"
 "http://www.w3.org/TR/2001/REC-SVG-20010904/DTD/svg10.dtd">
<svg version="1.0" xmlns="http://www.w3.org/2000/svg"
 width="96.000000pt" height="96.000000pt" viewBox="0 0 96.000000 96.000000"
 preserveAspectRatio="xMidYMid meet">
<metadata>
Created by potrace 1.14, written by Peter Selinger 2001-2017
</metadata>
<g transform="translate(0.000000,96.000000) scale(0.100000,-0.100000)"
fill="#000000" stroke="none">
<path d="M92 888 c4 -67 43 -165 80 -205 l20 -21 -29 -59 c-17 -32 -44 -84
-61 -116 -31 -56 -37 -102 -19 -147 3 -8 8 -32 12 -53 3 -21 13 -41 21 -44 7
-3 14 -16 14 -29 0 -14 7 -27 18 -31 9 -3 24 -12 33 -20 9 -8 23 -13 30 -11 7
2 20 -11 28 -29 10 -23 31 -40 75 -63 56 -28 71 -31 158 -31 52 -1 104 4 115
9 10 6 39 36 63 66 25 31 53 56 63 56 10 0 21 8 24 18 4 9 15 23 25 30 11 8
17 19 15 25 -2 7 7 30 21 52 23 36 24 43 13 82 -6 24 -11 53 -11 64 0 12 -11
42 -24 68 -13 25 -32 68 -43 95 l-18 48 114 115 c132 131 134 145 22 120 -92
-21 -160 -57 -213 -111 l-43 -44 -123 5 -123 6 -33 51 c-54 84 -159 166 -213
166 -12 0 -15 -12 -11 -62z m206 -120 c15 -26 36 -49 47 -52 11 -2 75 -6 141
-7 l122 -3 59 55 c33 30 77 61 99 68 21 7 44 14 49 17 6 2 16 -6 23 -17 12
-19 10 -25 -23 -59 -43 -44 -116 -83 -139 -74 -18 7 -22 -11 -5 -22 6 -3 24
-34 40 -68 30 -64 38 -132 19 -180 -16 -44 -29 -29 -23 28 5 50 4 55 -22 72
-20 13 -31 15 -44 7 -45 -28 -49 -120 -6 -143 14 -7 21 -18 18 -26 -3 -8 0
-20 6 -28 9 -11 4 -15 -28 -20 -42 -6 -105 10 -170 45 -38 20 -71 25 -71 10 0
-13 -102 -33 -131 -25 -22 6 -18 43 9 70 33 34 31 107 -3 130 -24 16 -27 16
-46 -2 -30 -26 -37 -51 -29 -96 4 -21 4 -38 0 -38 -14 0 -20 31 -20 109 0 68
4 84 26 117 14 21 38 49 53 61 l26 22 -23 1 c-47 0 -93 31 -115 78 l-22 44 35
29 34 29 44 -43 c24 -23 55 -63 70 -89z m-48 -258 c0 -24 -26 -38 -42 -22 -8
8 -8 15 2 27 18 21 40 19 40 -5z m417 -24 c-9 -23 -37 -20 -37 3 0 21 20 33
34 20 5 -4 6 -15 3 -23z m-190 -212 c-3 -3 -12 -4 -19 -1 -8 3 -5 6 6 6 11 1
17 -2 13 -5z"/>
</g>
</svg>
